<svg xmlns="http://www.w3.org/2000/svg" viewBox="0 0 180 180" fill="none"><defs><linearGradient id="case" x1="29" y1="54" x2="151" y2="147" gradientUnits="userSpaceOnUse"><stop stop-color="#9bc0df"/><stop offset=".22" stop-color="#648cac"/><stop offset=".55" stop-color="#315674"/><stop offset=".82" stop-color="#18334a"/><stop offset="1" stop-color="#081522"/></linearGradient><linearGradient id="side" x1="124" y1="66" x2="150" y2="143"><stop stop-color="#416c88"/><stop offset=".5" stop-color="#1b3b53"/><stop offset="1" stop-color="#06111c"/></linearGradient><linearGradient id="edge" x1="45" y1="68" x2="137" y2="139"><stop stop-color="#f6fbfd" stop-opacity=".84"/><stop offset=".44" stop-color="#a5c3d8" stop-opacity=".46"/><stop offset="1" stop-color="#233f58" stop-opacity=".08"/></linearGradient><linearGradient id="gold" x1="79" y1="91" x2="102" y2="116"><stop stop-color="#f7dda5"/><stop offset=".44" stop-color="#ca9650"/><stop offset="1" stop-color="#71471b"/></linearGradient><radialGradient id="gloss" cx="0" cy="0" r="1" gradientTransform="translate(58 74) rotate(37) scale(73 49)" gradientUnits="userSpaceOnUse"><stop stop-color="#fff" stop-opacity=".18"/><stop offset=".65" stop-color="#fff" stop-opacity="0"/></radialGradient><filter id="ds" x="-50%" y="-50%" width="200%" height="220%"><feDropShadow dx="0" dy="17" stdDeviation="10" flood-color="#000" flood-opacity=".46"/></filter><filter id="soft" x="-55%" y="-55%" width="210%" height="210%"><feGaussianBlur stdDeviation="8"/></filter></defs><ellipse cx="90" cy="154" rx="55" ry="11" fill="#000" opacity=".34" filter="url(#soft)"/><g filter="url(#ds)"><rect x="33" y="65" width="114" height="77" rx="22" fill="url(#case)"/><rect x="35" y="67" width="108" height="71" rx="19" fill="url(#gloss)"/><path d="M128 67q19 4 19 20v34q0 18-19 21Z" fill="url(#side)"/><path d="M37 133c28 7 73 8 91 2v7H54c-10 0-16-3-17-9Z" fill="#06121e" opacity=".54"/><path d="M67 65V52c0-10 5-15 15-15h16c10 0 15 5 15 15v13" stroke="#e6f0f5" stroke-width="8"/><path d="M72 62V52q0-10 10-10h16q10 0 10 10v10" stroke="#fff" stroke-opacity=".34" stroke-width="3"/><path d="M37 76c20 15 38 22 53 22s34-7 53-22" stroke="url(#edge)" stroke-width="8"/><path d="M38 78c18 12 34 17 49 18" stroke="#fff" stroke-opacity=".23" stroke-width="2.4" stroke-linecap="round"/><path d="M34 116c28 8 84 8 112 0" stroke="#fff" stroke-opacity=".16" stroke-width="3"/><rect x="78" y="91" width="24" height="26" rx="7" fill="#06131f" opacity=".52"/><rect x="81" y="94" width="18" height="19" rx="5" fill="url(#gold)"/><path d="M84 97h12" stroke="#fff7df" stroke-opacity=".65" stroke-width="2" stroke-linecap="round"/><rect x="86" y="100" width="8" height="6" rx="2" fill="#fff5db" opacity=".92"/><path d="M115 124h12V98h-12v26Zm-20 0h12V84H95v40Zm-20 0h12v-17H75v17Z" fill="#e8f2f8" opacity=".26"/><path d="M44 75c10-6 23-9 38-9" stroke="#fff" stroke-opacity=".52" stroke-width="4" stroke-linecap="round"/><path d="M42 130c22 5 52 7 77 3" stroke="#fff" stroke-opacity=".13" stroke-width="3" stroke-linecap="round"/><path d="M135 80v43" stroke="#c5dbe9" stroke-opacity=".18" stroke-width="2"/></g></svg>