<svg xmlns="http://www.w3.org/2000/svg" viewBox="0 0 180 180" fill="none"><defs>
 <linearGradient id="p" x1="36" y1="26" x2="144" y2="152" gradientUnits="userSpaceOnUse"><stop stop-color="#7fa7eb"/><stop offset=".55" stop-color="#345ea5"/><stop offset="1" stop-color="#142235"/></linearGradient>
 <linearGradient id="hi" x1="48" y1="34" x2="134" y2="138" gradientUnits="userSpaceOnUse"><stop stop-color="#fff" stop-opacity=".98"/><stop offset=".45" stop-color="#fff" stop-opacity=".32"/><stop offset="1" stop-color="#fff" stop-opacity=".04"/></linearGradient>
 <filter id="ds" x="-40%" y="-40%" width="180%" height="190%"><feDropShadow dx="0" dy="12" stdDeviation="10" flood-color="#000" flood-opacity=".30"/></filter>
 <filter id="soft" x="-50%" y="-50%" width="200%" height="200%"><feGaussianBlur stdDeviation="8"/></filter>
 </defs><ellipse cx="90" cy="151" rx="48" ry="10" fill="#000" opacity=".20" filter="url(#soft)"/><g filter="url(#ds)"><rect x="34" y="66" width="112" height="76" rx="22" fill="url(#p)"/><path d="M67 66V52q0-14 14-14h18q14 0 14 14v14" stroke="#e6efff" stroke-width="9"/><path d="M34 88c19 10 38 15 56 15s37-5 56-15" stroke="#aec8f0" stroke-width="7"/><rect x="82" y="96" width="16" height="16" rx="5" fill="#f9d976"/><path d="M116 118h14V91h-14v27Zm-22 0h14V78H94v40Zm-22 0h14v-17H72v17Z" fill="#fff" opacity=".22"/></g></svg>