<svg xmlns="http://www.w3.org/2000/svg" viewBox="0 0 180 180" fill="none"><defs><linearGradient id="body" x1="46" y1="48" x2="137" y2="146" gradientUnits="userSpaceOnUse"><stop stop-color="#879FDD"/><stop offset=".42" stop-color="#586FAF"/><stop offset=".76" stop-color="#293D63"/><stop offset="1" stop-color="#15253A"/></linearGradient><linearGradient id="top" x1="47" y1="49" x2="133" y2="78"><stop stop-color="#8875C7"/><stop offset="1" stop-color="#425A91"/></linearGradient><linearGradient id="gold" x1="108" y1="111" x2="137" y2="142"><stop stop-color="#F1D28A"/><stop offset="1" stop-color="#A67425"/></linearGradient><filter id="ds" x="-40%" y="-40%" width="180%" height="200%"><feDropShadow dx="0" dy="12" stdDeviation="9" flood-color="#07111D" flood-opacity=".34"/></filter><filter id="soft" x="-50%" y="-50%" width="200%" height="200%"><feGaussianBlur stdDeviation="7"/></filter></defs><ellipse cx="90" cy="153" rx="48" ry="9" fill="#07111D" opacity=".22" filter="url(#soft)"/><g filter="url(#ds)"><rect x="39" y="49" width="102" height="96" rx="24" fill="#101E30"/><rect x="43" y="51" width="94" height="89" rx="21" fill="url(#body)"/><path d="M43 72V69c0-10 8-18 18-18h58c10 0 18 8 18 18v7H43v-4Z" fill="url(#top)"/><path d="M50 59c18-8 57-8 80 1" stroke="#E8E6FF" stroke-opacity=".34" stroke-width="4" stroke-linecap="round"/><path d="M67 39v23M113 39v23" stroke="#F8F5E9" stroke-width="8" stroke-linecap="round"/><path d="M67 39v8M113 39v8" stroke="#fff" stroke-opacity=".8" stroke-width="3" stroke-linecap="round"/><rect x="57" y="91" width="20" height="18" rx="5" fill="#F8F6EF"/><rect x="85" y="91" width="20" height="18" rx="5" fill="#E6EAF1" opacity=".9"/><rect x="113" y="91" width="12" height="18" rx="5" fill="#D7DFEA" opacity=".68"/><circle cx="119" cy="127" r="20" fill="#14283D" opacity=".45" transform="translate(2 3)"/><circle cx="119" cy="126" r="19" fill="url(#gold)"/><path d="m111 126 6 6 11-13" stroke="#FFF9E9" stroke-width="5" stroke-linecap="round" stroke-linejoin="round"/></g></svg>