<svg xmlns="http://www.w3.org/2000/svg" viewBox="0 0 180 180" fill="none"><defs>
 <linearGradient id="p" x1="36" y1="26" x2="144" y2="152" gradientUnits="userSpaceOnUse"><stop stop-color="#ffd96a"/><stop offset=".55" stop-color="#c79414"/><stop offset="1" stop-color="#142235"/></linearGradient>
 <linearGradient id="hi" x1="48" y1="34" x2="134" y2="138" gradientUnits="userSpaceOnUse"><stop stop-color="#fff" stop-opacity=".98"/><stop offset=".45" stop-color="#fff" stop-opacity=".32"/><stop offset="1" stop-color="#fff" stop-opacity=".04"/></linearGradient>
 <filter id="ds" x="-40%" y="-40%" width="180%" height="190%"><feDropShadow dx="0" dy="12" stdDeviation="10" flood-color="#000" flood-opacity=".30"/></filter>
 <filter id="soft" x="-50%" y="-50%" width="200%" height="200%"><feGaussianBlur stdDeviation="8"/></filter>
 </defs><ellipse cx="90" cy="151" rx="48" ry="10" fill="#000" opacity=".20" filter="url(#soft)"/><g filter="url(#ds)"><path d="M45 63h90l-8 76q-1 11-12 11H65q-11 0-12-11l-8-76Z" fill="url(#p)"/><path d="M66 69V53q0-24 24-24t24 24v16" stroke="#fff4c8" stroke-width="9" stroke-linecap="round"/><path d="M104 93 122 99v16c0 13-9 22-18 27-9-5-18-14-18-27V99l18-6Z" fill="#183244"/><path d="m96 116 6 6 11-14" stroke="#fff1a8" stroke-width="5" stroke-linecap="round" stroke-linejoin="round"/></g></svg>