<svg xmlns="http://www.w3.org/2000/svg" viewBox="0 0 180 180" fill="none"><defs>
 <linearGradient id="p" x1="36" y1="26" x2="144" y2="152" gradientUnits="userSpaceOnUse"><stop stop-color="#6ed9f1"/><stop offset=".55" stop-color="#3288d4"/><stop offset="1" stop-color="#142235"/></linearGradient>
 <linearGradient id="hi" x1="48" y1="34" x2="134" y2="138" gradientUnits="userSpaceOnUse"><stop stop-color="#fff" stop-opacity=".98"/><stop offset=".45" stop-color="#fff" stop-opacity=".32"/><stop offset="1" stop-color="#fff" stop-opacity=".04"/></linearGradient>
 <filter id="ds" x="-40%" y="-40%" width="180%" height="190%"><feDropShadow dx="0" dy="12" stdDeviation="10" flood-color="#000" flood-opacity=".30"/></filter>
 <filter id="soft" x="-50%" y="-50%" width="200%" height="200%"><feGaussianBlur stdDeviation="8"/></filter>
 </defs><ellipse cx="90" cy="151" rx="48" ry="10" fill="#000" opacity=".20" filter="url(#soft)"/><g filter="url(#ds)"><rect x="45" y="56" width="90" height="92" rx="24" fill="url(#p)"/><path d="M72 58V48q0-14 14-14h8q14 0 14 14v10" stroke="#dff8ff" stroke-width="8" stroke-linecap="round"/><rect x="68" y="79" width="44" height="46" rx="12" fill="#eaf9ff" opacity=".94"/><path d="M90 84v36M75 101h30" stroke="#4aa7d6" stroke-width="5" stroke-linecap="round"/><path d="m105 92 18-9 8-15q2-4 6-4l5 1-5 19 13 3q4 1 4 5 0 4-5 5l-15 1-7 16q-2 4-6 3l-4-1 3-15-15-2Z" fill="#fff7dc"/></g></svg>