<svg xmlns="http://www.w3.org/2000/svg" viewBox="0 0 180 180" fill="none"><defs><linearGradient id="p" x1="42" y1="48" x2="140" y2="151" gradientUnits="userSpaceOnUse"><stop stop-color="#8ab8d9"/><stop offset=".18" stop-color="#5b91bb"/><stop offset=".5" stop-color="#315f83"/><stop offset=".78" stop-color="#19354f"/><stop offset="1" stop-color="#0b1727"/></linearGradient><linearGradient id="side" x1="116" y1="61" x2="139" y2="146"><stop stop-color="#406f91"/><stop offset=".5" stop-color="#1c3d59"/><stop offset="1" stop-color="#081523"/></linearGradient><linearGradient id="edge" x1="45" y1="60" x2="130" y2="146"><stop stop-color="#d7e6ef" stop-opacity=".5"/><stop offset=".42" stop-color="#6e9cbd" stop-opacity=".18"/><stop offset="1" stop-color="#07111d" stop-opacity=".65"/></linearGradient><linearGradient id="ivory" x1="67" y1="76" x2="114" y2="128"><stop stop-color="#fffdf7"/><stop offset=".32" stop-color="#f2eadc"/><stop offset=".7" stop-color="#d1c5b2"/><stop offset="1" stop-color="#a99b87"/></linearGradient><linearGradient id="gold" x1="111" y1="74" x2="148" y2="113"><stop stop-color="#f4d79d"/><stop offset=".3" stop-color="#ddb36d"/><stop offset=".66" stop-color="#a97538"/><stop offset="1" stop-color="#6d451f"/></linearGradient><filter id="ds" x="-45%" y="-45%" width="195%" height="205%"><feDropShadow dx="0" dy="15" stdDeviation="10" flood-color="#000" flood-opacity=".42"/></filter><filter id="soft" x="-55%" y="-55%" width="210%" height="210%"><feGaussianBlur stdDeviation="8"/></filter></defs><ellipse cx="91" cy="153" rx="52" ry="10" fill="#000" opacity=".3" filter="url(#soft)"/><g filter="url(#ds)"><rect x="45" y="56" width="90" height="92" rx="24" fill="url(#p)"/><path d="M116 58q19 5 19 23v43q0 18-19 24Z" fill="url(#side)"/><path d="M49 73q4-13 17-16h49q12 1 18 12" stroke="url(#edge)" stroke-width="3" stroke-linecap="round" opacity=".9"/><path d="M72 58V48q0-14 14-14h8q14 0 14 14v10" stroke="#dbe8ef" stroke-width="8" stroke-linecap="round"/><path d="M76 55v-7q0-10 10-10h8q10 0 10 10v7" stroke="#fff" stroke-opacity=".34" stroke-width="3" stroke-linecap="round"/><path d="M73 57h34" stroke="#07111d" stroke-opacity=".38" stroke-width="2"/><rect x="68" y="79" width="44" height="46" rx="12" fill="url(#ivory)"/><path d="M72 82h36" stroke="#fff" stroke-opacity=".58" stroke-width="2.5" stroke-linecap="round"/><path d="M110 87v28q0 7-7 9" stroke="#756b5e" stroke-opacity=".32" stroke-width="2"/><path d="M90 84v36M75 101h30" stroke="#416f91" stroke-width="5" stroke-linecap="round"/><path d="M90 85v34" stroke="#8eb0c6" stroke-opacity=".42" stroke-width="1.4"/><path d="m105 92 18-9 8-15q2-4 6-4l5 1-5 19 13 3q4 1 4 5 0 4-5 5l-15 1-7 16q-2 4-6 3l-4-1 3-15-15-2Z" fill="url(#gold)"/><path d="m119 88 11-5M134 89l13 2" stroke="#fff6df" stroke-opacity=".62" stroke-width="2" stroke-linecap="round"/><path d="M51 69c13-8 28-10 43-9" stroke="#fff" stroke-opacity=".42" stroke-width="4" stroke-linecap="round"/><path d="M52 75c8-4 17-6 27-7" stroke="#d8e7f0" stroke-opacity=".16" stroke-width="2" stroke-linecap="round"/><path d="M55 136c17 5 37 6 54 3" stroke="#fff" stroke-opacity=".11" stroke-width="3" stroke-linecap="round"/><path d="M119 65v71" stroke="#82a8c1" stroke-opacity=".13" stroke-width="2"/><circle cx="62" cy="136" r="3" fill="#07111d" opacity=".7"/><circle cx="118" cy="136" r="3" fill="#07111d" opacity=".7"/></g></svg>