<svg xmlns="http://www.w3.org/2000/svg" viewBox="0 0 720 720" role="img" aria-labelledby="t d">
<title id="t">Ramo fiorito HERBARIUM</title>
<desc id="d">Illustrazione botanica originale di un ramo verde con fiori chiari, pensata per la home di HERBARIUM.</desc>
<defs>
  <radialGradient id="bg" cx="55%" cy="42%" r="62%">
    <stop offset="0" stop-color="#f9f5e9"/>
    <stop offset=".52" stop-color="#dce7d8"/>
    <stop offset="1" stop-color="#a8bda4"/>
  </radialGradient>
  <linearGradient id="stem" x1=".1" y1=".9" x2=".8" y2=".1">
    <stop offset="0" stop-color="#385b44"/>
    <stop offset="1" stop-color="#183b2c"/>
  </linearGradient>
  <linearGradient id="leaf" x1="0" y1="0" x2="1" y2="1">
    <stop offset="0" stop-color="#6f966f"/>
    <stop offset="1" stop-color="#244c38"/>
  </linearGradient>
  <radialGradient id="petal" cx="50%" cy="45%" r="65%">
    <stop offset="0" stop-color="#fffef8"/>
    <stop offset=".72" stop-color="#f5f0e1"/>
    <stop offset="1" stop-color="#ded7c8"/>
  </radialGradient>
  <filter id="soft"><feGaussianBlur stdDeviation="18"/></filter>
  <filter id="shadow"><feDropShadow dx="0" dy="10" stdDeviation="12" flood-color="#1b3427" flood-opacity=".18"/></filter>
</defs>
<rect width="720" height="720" rx="48" fill="url(#bg)"/>
<g opacity=".22" filter="url(#soft)" fill="#204a35">
  <circle cx="580" cy="110" r="95"/><circle cx="650" cy="210" r="74"/><circle cx="95" cy="640" r="120"/>
</g>
<g fill="none" stroke="url(#stem)" stroke-width="13" stroke-linecap="round">
  <path d="M170 650c72-95 152-173 220-261s117-183 153-292"/>
  <path d="M346 430c-51-46-104-75-166-94"/>
  <path d="M404 350c60-38 116-83 157-140"/>
  <path d="M456 266c-42-39-78-85-101-137"/>
</g>
<g fill="url(#leaf)" stroke="#254a37" stroke-width="4" filter="url(#shadow)">
  <path d="M201 377c-78-8-139-50-174-116 77-7 145 26 190 89-1 11-6 20-16 27Z"/>
  <path d="M255 332c-67-31-107-82-120-146 69 7 122 44 158 103-5 17-18 32-38 43Z"/>
  <path d="M368 451c-70 8-128 42-171 101 70 19 134-1 187-56 0-18-6-33-16-45Z"/>
  <path d="M506 300c71-10 127-45 169-106-69-16-133 6-184 63 0 18 5 32 15 43Z"/>
  <path d="M471 218c62-17 109-52 141-104-64-6-116 19-156 73 0 12 5 23 15 31Z"/>
  <path d="M524 123c47-6 85-28 115-66-49-10-91 4-125 42-1 10 2 18 10 24Z"/>
</g>
<g filter="url(#shadow)">
  <g transform="translate(448 307)">
    <g fill="url(#petal)" stroke="#d7cfbd" stroke-width="3">
      <ellipse rx="56" ry="116" transform="rotate(-4) translate(0 -58)"/>
      <ellipse rx="56" ry="116" transform="rotate(68) translate(0 -58)"/>
      <ellipse rx="56" ry="116" transform="rotate(140) translate(0 -58)"/>
      <ellipse rx="56" ry="116" transform="rotate(212) translate(0 -58)"/>
      <ellipse rx="56" ry="116" transform="rotate(284) translate(0 -58)"/>
    </g>
    <circle r="34" fill="#dfb547"/>
    <g fill="#c68f21">
      <circle cx="-16" cy="-8" r="5"/><circle cx="13" cy="-12" r="5"/><circle cx="19" cy="10" r="5"/>
      <circle cx="-8" cy="16" r="5"/><circle cx="1" cy="-2" r="5"/>
    </g>
  </g>
  <g transform="translate(585 195) scale(.62)">
    <g fill="url(#petal)" stroke="#d7cfbd" stroke-width="3">
      <ellipse rx="48" ry="100" transform="rotate(0) translate(0 -50)"/>
      <ellipse rx="48" ry="100" transform="rotate(72) translate(0 -50)"/>
      <ellipse rx="48" ry="100" transform="rotate(144) translate(0 -50)"/>
      <ellipse rx="48" ry="100" transform="rotate(216) translate(0 -50)"/>
      <ellipse rx="48" ry="100" transform="rotate(288) translate(0 -50)"/>
    </g>
    <circle r="28" fill="#dfb547"/>
  </g>
</g>
</svg>